# xmcd CD database file
#
# Track frame offsets:
#	150
#	24633
#	37103
#	49605
#	72038
#	89080
#	104055
#	120155
#	140858
#	157258
#	174785
#	193713
#
# Disc length: 2780 seconds
#
# Revision: 0
# Processed by: cddbd v1.5.2PL0 Copyright (c) Steve Scherf et al.
# Submitted via: CDex 1.51
#
DISCID=ab0ada0c
DTITLE=Glen Curtin - From Cork To New York
DYEAR=1900
DGENRE=Country
TTITLE0=Flight Of Earls
TTITLE1=April Love
TTITLE2=The Boys From The County Cork
TTITLE3=Grace
TTITLE4=The Good Time
TTITLE5=One Day At A Time
TTITLE6=Can't Help Falling In Love
TTITLE7=My Last Farewell(Padraic Pearse)
TTITLE8=And I Love You So
TTITLE9=Come With Me Molly
TTITLE10=James Connolly
TTITLE11=From Cork To New York
EXTD=
EXTT0=
EXTT1=
EXTT2=
EXTT3=
EXTT4=
EXTT5=
EXTT6=
EXTT7=
EXTT8=
EXTT9=
EXTT10=
EXTT11=
PLAYORDER=
